# xmcd CD database file
#
# Track frame offsets:
#	150
#	12834
#	28010
#	42152
#	55252
#	66159
#	79368
#	93984
#	105749
#	117538
#
# Disc length: 1705 seconds
#
# Revision: 0
# Processed by: cddbd v1.5.2PL0 Copyright (c) Steve Scherf et al.
# Submitted via: CDex 1.70beta2
#
DISCID=8106a70a
DTITLE=Don Williams - Live - 16 Top Ten Hits - Disc 1
DYEAR=2008
DGENRE=Country
TTITLE0=I'm Just A Country Boy
TTITLE1=Till The Rivers All Run Dry
TTITLE2=You're My Best Friend
TTITLE3=Amanda
TTITLE4=Some Broken Hearts Never Mend
TTITLE5=I've Got A Winner In You
TTITLE6=Tulsa Time
TTITLE7=The Ties That Bind
TTITLE8=We Should Be Together
TTITLE9=It Must Be Love
EXTD=YEAR: 2008
EXTT0=
EXTT1=
EXTT2=
EXTT3=
EXTT4=
EXTT5=
EXTT6=
EXTT7=
EXTT8=
EXTT9=
PLAYORDER=
